<svg xmlns="http://www.w3.org/2000/svg" xmlns:xlink="http://www.w3.org/1999/xlink" width="88.25" height="155.534" viewBox="0 0 88.25 155.534"><defs><linearGradient id="a" x1="0.91" y1="0.352" x2="0.048" y2="0.551" gradientUnits="objectBoundingBox"><stop offset="0" stop-color="#069697"></stop><stop offset="0.473" stop-color="#cf592d"></stop><stop offset="1" stop-color="#e53158"></stop></linearGradient><linearGradient id="b" x1="0.151" y1="0.103" x2="1" y2="0.625" xlink:href="#a"></linearGradient><linearGradient id="c" x1="0.024" y1="0.541" x2="0.988" y2="0.375" xlink:href="#a"></linearGradient><clipPath id="d"><path d="M500.086-478.017l-27.18,7.389a46.333,46.333,0,0,1-18.337,1.156l27.18-7.389A46.314,46.314,0,0,0,500.086-478.017Z" fill="none"></path></clipPath><linearGradient id="e" y1="0.5" x2="1" y2="0.5" gradientUnits="objectBoundingBox"><stop offset="0" stop-color="#0cf4ed"></stop><stop offset="1" stop-color="#8e03e0"></stop></linearGradient><linearGradient id="f" x1="0.868" y1="0.831" x2="0.193" y2="0.023" xlink:href="#a"></linearGradient></defs><g transform="translate(-451.805 624.58)"><g style="isolation:isolate"><path d="M479.344-605.357l-27.18,7.389-.36-19.223,27.18-7.389Z" fill="url(#a)"></path><g style="isolation:isolate"><path d="M494.954-496.939l-27.18,7.389c17.564-4.775,30.007-23.685,29.553-47.939-.564-30.124-20.824-57.255-45.163-60.479l27.18-7.389c24.339,3.224,44.6,30.355,45.163,60.48.454,24.253-11.989,43.163-29.553,47.938" fill="url(#b)"></path></g><path d="M481.749-476.861l-27.18,7.389-.36-19.223,27.18-7.389Z" fill="url(#c)"></path><g style="isolation:isolate"><g clip-path="url(#d)"><path d="M500.086-478.017l-27.18,7.389a46.333,46.333,0,0,1-18.337,1.156l27.18-7.389a46.314,46.314,0,0,0,18.337-1.156" fill="url(#e)"></path></g></g><path d="M478.985-624.58c32.905,4.359,60.291,41.033,61.053,81.76s-25.384,70.318-58.289,65.959l-.36-19.223c24.339,3.224,43.682-18.661,43.118-48.793s-20.824-57.256-45.163-60.48Z" fill="url(#f)"></path></g></g></svg>